<svg enable-background="new 0 0 2100 400" viewBox="0 0 2100 400" xmlns="http://www.w3.org/2000/svg"><path d="m67.96 90.62h168.75c16.67 0 25 8.33 25 25v168.75c0 16.67-8.33 25-25 25h-168.75c-16.67 0-25-8.33-25-25v-168.75c0-16.66 8.33-25 25-25z" fill="#2e001f"/><path d="m236.71 315h-168.75c-16.91-.02-30.61-13.72-30.62-30.62v-168.76c.01-16.9 13.71-30.6 30.62-30.62h168.75c16.91.02 30.61 13.72 30.62 30.62v168.75c-.01 16.91-13.71 30.61-30.62 30.63zm-168.75-218.75c-10.7.01-19.36 8.68-19.37 19.38v168.75c.01 10.7 8.68 19.36 19.37 19.38h168.75c10.7-.01 19.36-8.68 19.37-19.38v-168.76c-.01-10.7-8.68-19.36-19.37-19.38h-168.75z" fill="#ff26be"/><path d="m76.84 154.5h18.62l20.25 31.5 21.12-31.5h17.5l-29.5 43 31.63 46.25h-19l-22.25-34.12-22.62 34.12h-17.88l31.62-46.25zm147.62 89.25h-13.5v-8.75h-.25c-3.75 7.38-11.88 10.5-20 10.5-20.38 0-30.25-15.12-30.25-34.5 0-23.38 13.88-33.62 28-33.62 8.13 0 17.12 3 21.5 10.12h.25v-33h14.25zm-31.88-9.5c12.75 0 18.12-11.63 18.12-22.88 0-14.25-6.88-22.75-17.88-22.75-13.38 0-18.12 11.88-18.12 23.5.01 11.13 5.51 22.13 17.88 22.13z" fill="#ffd9f2"/><path d="m420.61 171.61c-7.4 31.69-17.21 55.98-29.28 72.71l-13.35-11.74c12.23-16.73 21.4-39.09 27.35-67.08zm.8 100.86-3.7-15.93c7.72.64 14.8 1.13 21.56 1.13 6.11 0 9.33-3.22 9.33-9.49v-120.01h15.93v124.03c0 13.51-6.6 20.27-19.47 20.27zm107.63-36.84-13.83 9.49c-6.76-22.36-15.77-47.3-27.03-74.97l14-8.69c11.57 28.32 20.58 52.94 26.86 74.17zm29.12 38.93-10.94-9.65c4.5-14.16 6.76-32.34 6.92-54.21v-79.31h37.81v128.21c0 9.01-4.67 13.67-13.83 13.67h-6.27l-3.54-12.71c1.93.32 3.86.64 5.63.64 3.38 0 5.15-2.09 5.15-6.11v-34.43h-11.9c-.99 21.73-3.89 39.75-9.03 53.9zm20.91-130.14h-11.74v23.65h11.74zm-11.74 63.38h11.74v-26.7h-11.74zm36.35 68.21-10.78-9.81c3.7-12.87 5.63-29.12 5.79-49.07v-85.75h37.81v128.22c0 9.01-4.83 13.67-14.48 13.67h-6.44l-3.38-12.71c1.93.32 3.86.64 5.79.64 3.22 0 4.99-2.25 4.99-6.43v-33.94h-11.42c-.48 22.53-3.05 40.86-7.88 55.18zm19.31-131.59h-11.42v23.65h11.42zm-11.42 63.54h11.42v-26.86h-11.42zm62.58 22.69v13.03h-32.82v-13.03zm.32-57.76-8.2 5.79c-2.57-4.99-5.79-10.46-9.97-16.25v40.86h37.97c-.16 35.39-2.09 55.98-5.79 61.45-3.7 5.31-9.65 8.04-17.86 8.04h-7.88l-4.18-13.51c4.83.16 9.01.32 12.23.32s5.79-1.61 7.4-4.5c1.61-3.22 2.41-16.09 2.41-38.77h-37v-77.06h10.62c1.77-4.83 3.06-9.65 3.86-14.64l14.16 1.77c-.97 4.5-2.41 8.85-4.18 12.87h21.88c-1.29 27.67-3.06 44.08-5.47 49.23-2.73 5.15-7.56 7.72-14.48 7.72h-4.18l-4.02-12.23c3.22.16 5.95.32 8.2.32 1.93 0 3.22-1.29 3.86-3.54.8-2.57 1.45-12.07 1.93-28.31h-19.47v9.01l7.88-5.15c4.49 6.45 7.87 11.92 10.28 16.58zm81.24 16.57-10.62 10.62c-6.43-7.4-15.6-15.12-27.35-23.49l10.78-10.46c10.78 7.73 19.79 15.61 27.19 23.33zm.64 25.1c-6.76 20.59-14.32 40.06-22.68 58.08l-14.16-6.27c9.01-18.66 16.73-37.64 23.33-56.95zm3.87-64.03-10.78 10.78c-6.44-7.24-15.6-14.96-27.51-23.17l10.78-10.46c10.78 7.73 19.94 15.29 27.51 22.85zm19.62 14.16h67.73v14.16h-68.69v-12.07c-3.22 6.92-6.92 13.35-10.78 19.47l-12.39-7.88c10.62-16.57 18.18-34.27 22.68-53.25l14.16 3.06c-.97 3.54-1.93 7.08-2.9 10.46h65.15v14.8h-70.3c-1.44 3.85-3.05 7.55-4.66 11.25zm52.61 98.29c-3.54-6.76-5.31-20.75-5.31-41.67v-16.73h-59.52v-14.32h73.04v31.05c0 15.28.48 25.1 1.77 29.6.97 4.18 2.57 6.44 5.15 6.44 1.29 0 2.57-2.9 4.02-8.37.64-4.83 1.61-10.3 2.57-16.57l12.07 5.95c-2.25 14.16-4.83 23.49-7.72 28.31-2.9 4.5-6.11 6.92-9.65 6.92-7.41-.15-12.88-3.69-16.42-10.61zm98.29-117.76c2.9-6.6 5.79-13.51 8.53-20.59l15.28 3.38c-2.41 6.11-4.83 11.74-7.24 17.21h80.28v14.8h-87.51c-6.44 12.23-13.51 23-21.08 32.66h35.88v-21.56h15.6v21.56h48.42v14h-48.42v20.43h59.52v14.8h-59.52v33.3h-15.6v-33.3h-63.38v-14.8h63.38v-20.43h-51.8l-3.54-14c8.53-8.69 16.41-19.47 23.65-32.66h-29.6v-14.8zm168.76 56.95c-.97 2.57-1.77 4.99-2.74 7.56h32.82v12.39c-2.9 9.65-8.04 18.18-15.44 25.58 6.6 2.9 13.03 6.11 19.14 9.33l-8.2 11.9c-6.27-3.86-13.84-7.72-22.68-11.74-10.62 6.92-23.97 12.39-39.9 16.57l-7.08-12.55c12.07-2.9 22.52-6.43 31.21-10.94-6.6-2.73-13.67-5.47-21.07-8.37 3.86-6.76 7.4-13.03 10.46-19.14h-16.89v-13.03h22.68c1.29-3.22 2.41-6.43 3.38-9.33zm-9.65-46.65v-29.6h14v29.6h27.99v13.35h-27.99v.8c8.53 3.54 17.21 7.72 26.06 12.39l-8.04 12.07c-7.08-5.63-13.03-10.14-18.02-13.35v18.02h-14v-27.19c-5.31 11.58-14.16 21.72-26.54 30.41l-7.56-12.39c11.26-6.43 19.14-13.35 23.97-20.75h-20.27v-13.35h30.4zm-6.44-7.72-10.94 4.99c-3.22-7.72-6.76-14.64-10.46-20.59l12.07-4.02c3.54 6.1 6.6 12.54 9.33 19.62zm32.5 74.96h-24.94c-2.25 4.5-4.67 8.85-7.24 13.03 5.63 1.93 11.1 3.86 16.41 6.11 7.08-5.62 12.23-12.06 15.77-19.14zm15.12-89.6c-3.22 6.76-7.24 13.51-12.23 20.11l-10.62-5.47c5.15-6.76 9.17-13.35 12.07-19.79zm16.09 59.68c-2.57 5.79-5.15 11.26-8.04 16.09l-9.65-11.9c9.01-17.7 15.12-41.51 18.34-71.43l14.96 2.57c-.96 7.4-1.93 14.32-3.22 20.91h40.86v14.64h-9.33c-.97 26.22-5.79 48.58-14.48 67.08 8.04 13.35 17.37 23.81 28.31 31.21l-8.53 12.39c-10.46-7.56-19.47-17.54-27.19-29.92-7.56 11.74-17.05 21.72-28.31 29.76l-7.88-12.71c11.9-8.04 21.4-18.34 28.47-31.05-5.46-11.09-10.29-23.64-14.31-37.64zm7.4-21.88c3.54 16.73 8.2 31.37 13.83 43.92 5.31-14.8 8.21-31.85 8.85-51.16h-20.75c-.64 2.58-1.29 4.99-1.93 7.24zm187.58-.8v14.16c-10.13 7.08-21.4 14.16-33.94 21.07v7.88h62.1v14.8h-62.1v30.24c0 10.13-5.31 15.28-15.93 15.28h-19.79l-3.7-13.83c5.63.16 11.74.32 18.34.32 3.86 0 5.79-2.41 5.79-7.08v-24.94h-65.96v-14.8h65.96v-14.16c11.26-5.95 20.11-10.94 26.54-14.8h-64.83v-14.16h87.52zm25.58 8.85h-15.44v-23.17h-107.46v23.17h-15.44v-37.64h61.45c-2.25-5.15-4.5-9.97-7.08-14.32l17.54-2.9c2.25 5.15 4.5 10.78 6.6 17.21h59.84v37.65zm87.36-47.94c-5.47 13.19-12.55 25.74-21.24 37.48v106.02h-15.12v-88.16c-6.6 6.76-13.67 13.35-21.24 19.63l-4.83-15.93c21.72-18.82 37.8-40.7 48.1-65.8zm32.01 140.6c-12.87 0-19.3-6.43-19.3-19.3v-45.04c-5.79 3.06-11.74 6.11-17.86 9.01l-6.92-14.48c8.69-3.86 17.05-7.88 24.77-12.39v-62.58h15.28v53.09c15.77-10.46 29.76-22.36 41.67-35.71l10.62 12.07c-15.28 15.77-32.66 29.92-52.28 42.15v51.8c0 4.5 2.41 6.76 7.56 6.76h23.97c3.7 0 6.44-1.29 8.21-3.7 1.61-2.41 2.73-10.94 3.06-25.74l14.16 4.67c-1.13 18.5-3.22 29.76-6.11 33.62-3.06 3.86-8.69 5.79-16.73 5.79h-30.1zm84.46 2.57-11.1-9.81c5.95-11.1 9.01-25.1 9.17-41.99v-46.98l-8.85-10.62c9.65-9.65 17.86-22.84 24.77-39.74l14 3.22c-1.29 2.9-2.41 5.79-3.7 8.53h28.64v10.46c-2.9 5.95-5.95 11.26-8.85 15.77h17.05v96.69c0 8.85-4.18 13.35-12.55 13.35h-7.72l-3.54-12.23c2.57.32 4.99.48 7.24.48 2.57 0 3.86-2.09 3.86-6.11v-18.66h-12.71v34.75h-12.55v-34.75h-12.87c-1.44 14.96-4.82 27.51-10.29 37.64zm28.64-111.16c2.57-4.02 5.31-8.69 8.2-13.83h-18.66c-2.9 4.99-5.95 9.65-9.01 13.83zm-17.54 13.03v16.89h12.07v-16.89zm0 47.78h12.07v-18.02h-12.07zm37.32-47.78h-12.71v16.89h12.71zm0 29.76h-12.71v18.02h12.71zm45.37-52.93v-26.54h14.64v26.54h25.42v67.57h-25.42v31.21c4.18-.97 8.37-1.77 12.39-2.57-1.77-6.11-3.7-11.9-5.63-17.54l12.55-4.02c4.5 12.23 8.53 26.22 12.07 41.99l-13.03 3.22c-.8-3.86-1.61-7.56-2.57-11.1-17.21 3.86-35.39 7.4-54.7 10.3l-3.54-14.32c9.33-.96 18.66-2.09 27.83-3.54v-33.62h-25.1v-67.57h25.09zm.64 13.84h-11.58v39.9h11.58zm25.26 0h-11.91v39.9h11.91zm45.85 106.02-3.38-14.8c4.18.48 8.37.8 12.23.8 3.7 0 5.63-1.93 5.63-5.63v-34.59c-5.79 2.09-11.74 4.18-17.7 6.11l-3.86-15.44c7.24-1.61 14.48-3.7 21.56-6.27v-32.98h-18.34v-14.64h18.34v-29.44h15.44v29.44h12.07v14.64h-12.07v26.87c4.18-2.09 8.53-4.18 12.71-6.43v15.6c-4.18 2.09-8.53 4.18-12.71 6.11v44.88c0 10.46-5.31 15.77-15.77 15.77zm50.03-48.91v-14.32h86.07v14.32h-35.07v31.05h41.02v14.8h-98.45v-14.8h41.99v-31.05zm51.16-81.56h37.32v32.5h-14.16v-18.83h-62.26v18.82h-14.32v-32.5h38.13c-2.25-5.79-4.67-10.94-7.56-15.77l15.61-2.57c2.42 5.48 4.83 11.59 7.24 18.35zm-12.87 26.86c-7.08 15.77-16.25 27.83-27.83 36.2l-11.1-9.49c11.42-8.04 19.95-18.82 25.58-32.01zm46.98 28.16-13.51 6.92c-7.4-13.19-15.77-24.77-24.94-35.07l12.71-5.63c9.81 10.29 18.34 21.55 25.74 33.78zm57.75-11.91c-.16 34.43-5.79 64.03-16.89 88.8l-13.19-11.74c9.81-19.95 14.8-45.69 14.96-77.06v-55.02h123.87v41.51h-108.75zm0-40.54v12.71h93.79v-12.71zm43.76 93.31c-1.61 5.79-3.54 10.94-5.95 15.44-5.47 9.17-14.48 16.25-26.71 21.24l-8.53-13.35c11.1-4.5 18.66-10.46 22.68-17.7.97-1.93 1.77-3.7 2.41-5.63h-25.9v-14.16h29.12c.32-3.22.64-6.44.8-9.97v-8.04h-24.45v-14.16h23.65c-2.57-4.18-4.99-8.04-7.56-11.58l12.87-6.11c3.54 5.47 7.08 11.42 10.46 17.7h23.49c4.18-5.79 7.88-12.07 11.1-18.5l14.8 5.15c-2.9 4.83-6.11 9.17-9.65 13.35h23.49v14.16h-22.04v18.02h27.99v14.16h-27.99v34.75h-14.64v-34.75h-29.44zm3.06-32.18v8.04c-.16 3.54-.32 6.76-.64 9.97h27.03v-18.02h-26.39z" fill="#3d4858"/></svg>