<?xml version="1.0" encoding="utf-8"?>
<!-- Generator: Adobe Illustrator 24.0.0, SVG Export Plug-In . SVG Version: 6.00 Build 0)  -->
<svg version="1.1" xmlns="http://www.w3.org/2000/svg" xmlns:xlink="http://www.w3.org/1999/xlink" x="0px" y="0px"
	 viewBox="0 0 200 200" style="enable-background:new 0 0 200 200;" xml:space="preserve">
<style type="text/css">
	.st0{display:none;}
	.st1{display:inline;fill:#FFBB8D;}
	.st2{display:inline;fill:#FFB583;}
	.st3{display:inline;fill:#FFAF78;}
	.st4{display:inline;fill:#FFA96E;}
	.st5{display:inline;fill:#FFFFFF;}
	.st6{display:inline;fill:#FFEADC;}
	.st7{display:inline;}
	.st8{fill:#99E999;}
	.st9{fill:#01C700;}
	.st10{fill:#BEEEB9;}
	.st11{fill:#EAF9E8;}
	.st12{fill:#F72323;}
	.st13{fill:#FFFFFF;}
	.st14{opacity:0.4;fill:#FFFFFF;enable-background:new    ;}
</style>
<g id="图层_1" class="st0">
	<path class="st1" d="M40,0h120c26.7,0,40,13.3,40,40v120c0,26.7-13.3,40-40,40H40c-26.7,0-40-13.3-40-40V40C0,13.3,13.3,0,40,0z"/>
	<path class="st2" d="M160,0h-55.7C55.8,11.8,16.6,47.4,0,94.5V160c0,22.1,17.9,40,40,40h120c22.1,0,40-17.9,40-40V40
		C200,17.9,182.1,0,160,0z"/>
	<path class="st3" d="M160,0h-0.8C79.6,17.2,29,95.7,46.3,175.3c1.8,8.4,4.4,16.7,7.6,24.7H160c22.1,0,40-17.9,40-40V40
		C200,17.9,182.1,0,160,0z"/>
	<path class="st4" d="M97.1,140.8c0,20.4,4.2,40.5,12.3,59.2H160c22.1,0,40-17.9,40-40V40c0-13.2-6.5-25.5-17.4-33
		C130.5,31.2,97.1,83.4,97.1,140.8z"/>
	<path class="st5" d="M98.7,32.5h2.7c21.7,0,32.5,10.8,32.5,32.5v13.2c0,21.7-10.8,32.5-32.5,32.5h-2.7c-21.7,0-32.5-10.8-32.5-32.5
		V65C66.2,43.3,77,32.5,98.7,32.5z"/>
	<path class="st6" d="M88.1,115.8h23.8c19.3,0,35,15.7,35,35l0,0v1.7c0,2.8-2.2,5-5,5H58.1c-2.8,0-5-2.2-5-5v-1.7
		C53.1,131.5,68.8,115.8,88.1,115.8C88.1,115.8,88.1,115.8,88.1,115.8z"/>
	<path class="st5" d="M134.4,152.5v-1.7c0-19.3-15.7-35-35-35h0H88.1c-19.3,0-35,15.7-35,35l0,0v1.7c0,2.8,2.2,5,5,5h71.2
		C132.2,157.5,134.4,155.3,134.4,152.5L134.4,152.5z"/>
	<path class="st1" d="M80.6,65.1h0.3c2.5,0,3.8,1.2,3.8,3.8v5.5c0,2.5-1.2,3.8-3.8,3.8h-0.3c-2.5,0-3.8-1.2-3.8-3.8v-5.5
		C76.8,66.3,78.1,65.1,80.6,65.1z"/>
	<path class="st1" d="M96.7,65.1H97c2.5,0,3.8,1.2,3.8,3.8v5.5c0,2.5-1.2,3.8-3.8,3.8h-0.3c-2.5,0-3.8-1.2-3.8-3.8v-5.5
		C92.9,66.3,94.2,65.1,96.7,65.1z"/>
</g>
<g id="图层_2" class="st0">
	<g class="st7">
		<path class="st8" d="M134.3,97.7c0,1.5,0.4,3,1.2,4.3c2.3-3.6,4-7.9,4.5-12.4C136.6,90.9,134.3,94,134.3,97.7L134.3,97.7z
			 M95.6,65.6c-4.5,0.3-8.1,4.1-8.1,8.8c0,4.9,3.9,8.8,8.8,8.8s8.8-3.9,8.8-8.8c0-2.3-0.9-4.4-2.3-5.9h-0.6
			C99.6,68.6,97.3,67.4,95.6,65.6z"/>
		<path class="st8" d="M61.1,89.7c-1.5,1.3-3.5,2.2-5.7,2.2c-4.9,0-8.8-3.9-8.8-8.8c0-4.9,3.9-8.8,8.8-8.8c4.6,0,8.4,3.6,8.8,8.2
			c2.7-5.4,6.4-10.2,10.7-14.3c-0.6,0.1-1.3,0.3-1.9,0.3c-4.9,0-8.8-3.9-8.8-8.8S68,51,72.9,51s8.8,3.9,8.8,8.8
			c0,1.3-0.3,2.4-0.8,3.6c4-2.7,8.4-5,13-6.6c1.2-3.4,4.4-5.8,8.2-5.8c2.7,0,5,1.2,6.6,3.1c0.8,0,1.4-0.1,2.2-0.1
			c6.2,0,12,1,17.4,2.7c-9.7-10.6-24.4-17.3-40.9-17.3c-29,0-52.6,23.6-52.6,52.6c0,23.8,15.9,43.8,37.5,50.4
			c-8.8-9.4-14.1-21.9-14.1-35.7C58.2,100.7,59.3,95,61.1,89.7z"/>
		<path class="st8" d="M70,97.7c0,4.8,3.9,8.8,8.8,8.8c4.8,0,8.8-3.9,8.8-8.8c0-4.8-3.9-8.8-8.8-8.8C73.9,88.9,70,92.9,70,97.7z"/>
		<path class="st8" d="M128.4,82.6c3.5-1.2,5.9-4.4,5.9-8.2c0-4.9-3.9-8.8-8.8-8.8s-8.8,3.9-8.8,8.8v0.5c0.9-0.3,1.8-0.5,2.8-0.5
			C124.4,74.4,128.1,78,128.4,82.6z"/>
		<path class="st9" d="M64.2,83.1v-0.5c-1.2,2.3-2.2,4.6-3,7.1C62.9,88.2,64.2,85.8,64.2,83.1z M80.9,63.3c-2.2,1.5-4.1,3.2-6.1,4.9
			C77.6,67.7,79.8,65.9,80.9,63.3z"/>
		<path class="st9" d="M128.4,56.6c-5.4-1.7-11.3-2.7-17.4-2.7c-0.8,0-1.4,0.1-2.2,0.1c-5.2,0.3-10.2,1.2-14.8,2.7
			c-4.6,1.5-9,3.9-13,6.6c-1.2,2.4-3.4,4.4-6.1,4.9c-4.4,4.1-8,8.9-10.7,14.3V83c0,2.7-1.2,5-3.1,6.6c-1.8,5.3-2.8,10.8-2.8,16.8
			c0,13.8,5.4,26.4,14.1,35.7c9.7,10.3,23.3,16.9,38.5,16.9c4.9,0,8.8-3.9,8.8-8.8c0-2.3-0.9-4.4-2.3-5.9c-1.4-1.5-2.2-3.6-2.2-5.8
			c0-4.9,3.9-8.8,8.8-8.8h10.3c16.1,0,29.3-13.1,29.3-29.3C163.4,80.3,148.8,63,128.4,56.6L128.4,56.6z M125.5,65.6
			c4.9,0,8.8,3.9,8.8,8.8c0,3.9-2.4,7.1-5.9,8.2c-0.9,0.3-1.8,0.5-2.8,0.5c-4.6,0-8.4-3.6-8.8-8.2v-0.5
			C116.8,69.5,120.6,65.6,125.5,65.6z M95.6,65.6h0.6c2.6,0,4.9,1.2,6.4,2.8c1.4,1.5,2.3,3.6,2.3,5.9c0,4.9-3.9,8.8-8.8,8.8
			c-4.9,0-8.8-3.9-8.8-8.8C87.5,69.7,91.1,66,95.6,65.6z M70,97.7c0-4.9,3.9-8.8,8.8-8.8s8.8,3.9,8.8,8.8c0,4.9-3.9,8.8-8.8,8.8
			S70,102.6,70,97.7z M143,106.5c-3.4,0-6.2-1.8-7.6-4.5c-0.6-1.3-1.2-2.7-1.2-4.3c0-3.7,2.3-6.8,5.7-8.1c1-0.4,2.1-0.6,3.1-0.6
			c4.9,0,8.8,3.9,8.8,8.8C151.8,102.6,147.8,106.5,143,106.5L143,106.5z"/>
		<path class="st10" d="M179.7,147.5h-7.5V140c0-1.7-1.3-3-3-3s-3,1.3-3,3v7.5h-7.5c-1.7,0-3,1.3-3,3c0,1.7,1.3,3,3,3h7.5v7.5
			c0,1.7,1.3,3,3,3s3-1.3,3-3v-7.5h7.5c1.7,0,3-1.3,3-3C182.6,148.7,181.3,147.5,179.7,147.5L179.7,147.5z M22.9,163.4
			c-3.7-3.7-2.6-8.5-1.7-12c0.9-3.5,1-5.2-0.1-6.4c-1.3-1.3-2.8-1-6.4-0.1c-3.5,0.9-8.2,2.1-12-1.7c-3.7-3.7-2.6-8.4-1.7-11.9
			c0.9-3.5,1.2-5.2-0.1-6.4c-1.2-1.2-1.2-3,0-4.1c1.2-1.2,3-1.2,4.1,0c3.7,3.7,2.6,8.4,1.7,11.9c-0.9,3.5-1.2,5.2,0.1,6.4
			s2.8,1,6.4,0.1c3.5-0.9,8.2-2.1,11.9,1.7c3.7,3.7,2.6,8.5,1.7,12c-0.9,3.5-1.2,5.2,0.1,6.4c1.3,1.3,3,1,6.4,0.1
			c3.5-0.9,8.2-2.1,12,1.7c1.2,1.2,1.2,3,0,4.1c-1.2,1.2-3,1.2-4.1,0c-1.3-1.3-2.8-1-6.4-0.1C31.4,165.9,26.7,167,22.9,163.4z"/>
		<path class="st11" d="M176.8,107.8l10.2-12.9l12.9,10.2l-10.2,12.9L176.8,107.8z M14.1,76l8.8-8.8H5.4L14.1,76z"/>
		<path class="st10" d="M156.1,33.9c-7.7,0-14.2,6.3-14.2,14.2s6.3,14.2,14.2,14.2s14.2-6.3,14.2-14.2S163.8,33.9,156.1,33.9z
			 M156.1,56.3c-4.5,0-8.2-3.7-8.2-8.2s3.7-8.2,8.2-8.2c4.5,0,8.2,3.7,8.2,8.2S160.6,56.3,156.1,56.3z"/>
	</g>
</g>
<g id="图层_3">
	<g>
		<path class="st12" d="M0,100c0,55.2,44.8,100,100,100s100-44.8,100-100S155.2,0,100,0S0,44.8,0,100z"/>
		<path class="st13" d="M153.3,51.9h-107c-3.8,0-6.9,3.1-6.9,6.9v54.1c2.8-0.6,5.8-0.9,8.9-0.9c12.8,0,23.9,5.3,29.2,13.1
			c0.5-2.3,2.6-4.2,5.1-4.2c2.8,0,5.2,2.4,5.2,5.2c0,2.8-2.4,5.2-5.2,5.2c-0.9,0-1.7-0.2-2.4-0.7c0.4,1.5,0.7,3.1,0.7,4.7
			c0,3.5-1,6.7-2.9,9.7h75.3c3.8,0,6.9-3.1,6.9-6.9V58.8C160.2,55,157.1,51.9,153.3,51.9L153.3,51.9z M85.8,65.7
			c4.8,0,8.6,3.8,8.6,8.6c0,4.8-3.8,9-8.6,9c-4.8,0-8.6-3.8-8.6-8.6C77.6,69.5,81.3,65.7,85.8,65.7z M100,131.3
			c-2.8,0-5.2-2.4-5.2-5.2c0-2.8,2.4-5.2,5.2-5.2c2.8,0,5.2,2.4,5.2,5.2C105.2,128.9,102.7,131.3,100,131.3z M117.2,131.3
			c-2.8,0-5.2-2.4-5.2-5.2c0-2.8,2.4-5.2,5.2-5.2c2.8,0,5.2,2.4,5.2,5.2C122.4,128.9,120,131.3,117.2,131.3z M142.8,107.1H60.3
			c-1,0-2.1-0.7-2.8-1.4c-1-1.4-0.7-3.8,0.7-4.8L70,92.3c2.4-1.7,5.2-1.7,7.6-0.3l12.8,7.9l27.6-17.2c2.8-1.7,6.2-1.4,8.3,0.7
			l19,17.9c0.7,0.7,1,1.7,1,2.4C146.2,105.7,144.8,107.1,142.8,107.1L142.8,107.1z"/>
		<path class="st14" d="M80.3,130.6c-1.6-0.9-2.7-2.6-2.7-4.5c0-0.3,0-0.7,0.1-1c-5.3-7.7-16.4-13.1-29.2-13.1
			c-3.1,0-6.1,0.3-8.9,0.9v25.2c0,3.8,3.1,6.9,6.9,6.9H78c1.9-3,2.9-6.2,2.9-9.7C81,133.7,80.7,132.2,80.3,130.6z"/>
	</g>
</g>
</svg>
