<?xml version="1.0" encoding="utf-8"?>
<!-- Generator: Adobe Illustrator 24.0.0, SVG Export Plug-In . SVG Version: 6.00 Build 0)  -->
<svg version="1.1" xmlns="http://www.w3.org/2000/svg" xmlns:xlink="http://www.w3.org/1999/xlink" x="0px" y="0px"
	 viewBox="0 0 200 200" style="enable-background:new 0 0 200 200;" xml:space="preserve">
<style type="text/css">
	.st0{display:none;}
	.st1{display:inline;fill:#FF8AAE;}
	.st2{display:inline;fill:#FF83A4;}
	.st3{display:inline;fill:#FF7D96;}
	.st4{display:inline;fill:#FF768A;}
	.st5{display:inline;fill:#FFE9F1;}
	.st6{display:inline;fill:#FFFFFF;}
	.st7{display:inline;fill:#FFC0D8;}
	.st8{display:inline;}
	.st9{fill:#AAD4FF;}
	.st10{fill:#2B95FF;}
	.st11{fill:#A8D4FF;}
	.st12{fill:#D9EDFF;}
	.st13{fill:#116DF2;}
	.st14{fill:#FFFFFF;}
	.st15{opacity:0.4;fill:#FFFFFF;enable-background:new    ;}
</style>
<g id="图层_1" class="st0">
	<path class="st1" d="M40,0h120c26.7,0,40,13.3,40,40v120c0,26.7-13.3,40-40,40H40c-26.7,0-40-13.3-40-40V40C0,13.3,13.3,0,40,0z"/>
	<path class="st2" d="M160,0h-55.7C55.8,11.8,16.6,47.4,0,94.5V160c0,22.1,17.9,40,40,40h120c22.1,0,40-17.9,40-40V40
		C200,17.9,182.1,0,160,0z"/>
	<path class="st3" d="M160,0h-0.8C79.6,17.2,29,95.7,46.3,175.3c1.8,8.4,4.4,16.7,7.6,24.7H160c22.1,0,40-17.9,40-40V40
		C200,17.9,182.1,0,160,0z"/>
	<path class="st4" d="M97.1,140.8c0,20.4,4.2,40.5,12.3,59.2H160c22.1,0,40-17.9,40-40V40c0-13.2-6.5-25.5-17.4-33
		C130.5,31.2,97.1,83.4,97.1,140.8z"/>
	<path class="st5" d="M147.5,154.3h-95c-5.5,0-10-4.5-10-10l0,0v-70c0-3.1,1.4-6,3.9-7.9l50.6-39.7c1.8-1.4,4.3-1.4,6.2,0l50.6,39.6
		c2.4,1.9,3.9,4.8,3.9,7.9v70c0.1,5.5-4.4,10-9.9,10.1C147.6,154.3,147.5,154.3,147.5,154.3L147.5,154.3z"/>
	<path class="st6" d="M147.5,134.4v-70c0-1.1-0.2-2.1-0.5-3.2l-43.8-34.5c-1.8-1.4-4.3-1.4-6.2,0L46.4,66.3
		c-2.4,1.9-3.9,4.8-3.9,7.9v70h95C143,144.2,147.4,139.8,147.5,134.4L147.5,134.4z"/>
	<path class="st7" d="M121.2,77.7c-5.2-5.2-13.6-5.2-18.8,0L100,80l-2.3-2.3c-5.2-5.2-13.6-5.2-18.8,0c-5.2,5.2-5.2,13.6,0,18.8
		l4.7,4.7L97.7,115c1.3,1.3,3.4,1.3,4.7,0l14.1-14l4.7-4.7C126.2,91.1,126.2,82.9,121.2,77.7z"/>
</g>
<g id="图层_2" class="st0">
	<g class="st8">
		<path class="st9" d="M98.6,39.2c-34.1,0-61.8,27.7-61.8,61.8s27.7,61.8,61.8,61.8s61.8-27.7,61.8-61.8S132.9,39.2,98.6,39.2z
			 M98.6,57.7c10.2,0,18.6,8.3,18.6,18.6s-8.3,18.6-18.6,18.6s-18.6-8.3-18.6-18.6S88.4,57.7,98.6,57.7z M98.6,145.6
			c-15.6,0-29.1-7.9-37.1-19.9c0.1-12.3,24.8-19.1,37.1-19.1c12.3,0,37,6.8,37.1,19.1C127.5,138.1,113.6,145.6,98.6,145.6z"/>
		<path class="st10" d="M123.5,54.7c-34.1,0-61.8,27.7-61.8,61.8s27.7,61.8,61.8,61.8s61.8-27.7,61.8-61.8S157.6,54.7,123.5,54.7z
			 M123.5,73.3c10.2,0,18.6,8.3,18.6,18.6s-8.3,18.6-18.6,18.6s-18.6-8.3-18.6-18.6S113.2,73.3,123.5,73.3z M123.5,161.1
			c-15.6,0-29.1-7.9-37.1-19.9c0.1-12.3,24.8-19.1,37.1-19.1s37,6.8,37.1,19.1C152.5,153.2,138.9,161.1,123.5,161.1L123.5,161.1z"/>
		<path class="st11" d="M33.7,162.9h-7.9V155c0-1.8-1.4-3.1-3.1-3.1c-1.8,0-3.1,1.4-3.1,3.1v7.9h-7.9c-1.8,0-3.1,1.4-3.1,3.1
			c0,1.8,1.4,3.1,3.1,3.1h7.9v7.9c0,1.8,1.4,3.1,3.1,3.1c1.8,0,3.1-1.4,3.1-3.1v-7.9h7.9c1.8,0,3.1-1.4,3.1-3.1
			C36.8,164.3,35.5,162.9,33.7,162.9z"/>
		<path class="st12" d="M182,184.7h13.1L182,171.6V184.7z"/>
		<path class="st12" d="M0,132.2c0,4.8,3.9,8.7,8.7,8.7s8.7-3.9,8.7-8.7l0,0c0-4.8-3.9-8.7-8.7-8.7S0,127.4,0,132.2z"/>
		<path class="st11" d="M199,39.9l-23.7-23.7c-0.8-0.8-2.2-1.1-3.4-0.7c-1.1,0.5-1.9,1.6-1.9,2.9V42c0,0.8,0.4,1.6,1,2.2
			c0.5,0.5,1.4,1,2.2,1h23.7c1.2,0,2.3-0.8,2.9-1.9C200.3,42,200,40.8,199,39.9z M176.3,39V25.9L189.4,39H176.3z"/>
	</g>
</g>
<g id="图层_3">
	<g>
		<path class="st13" d="M0,100c0,55.2,44.8,100,100,100s100-44.8,100-100S155.2,0,100,0S0,44.8,0,100z"/>
		<path class="st14" d="M91.3,128.4c0.4-0.4,1-0.9,1.7-1.7l1.6-1.5c1.8-1.7,4-3.1,6.3-4.1c2.3-0.9,4.8-1.3,7.3-1.2
			c0.8,0,1.5-0.7,1.5-1.5c0-0.4-0.2-0.7-0.4-1c-0.3-0.3-0.7-0.4-1.1-0.4c-2.5,0-5,0.4-7.4,1.2c-2.2,0.7-4.2,1.8-6.1,3.1
			c-2,1.5-3.8,3.2-5.5,5.1c-0.3,0.3-0.4,0.7-0.4,1.1c0,0.8,0.7,1.5,1.5,1.5C90.7,128.8,91,128.7,91.3,128.4L91.3,128.4z"/>
		<path class="st14" d="M56.1,128.1v13c0,8.8,6,14.3,15,14.3h58.3c8.1,0,14.8-4.2,15-14.3v-31.4l14.8-5.3c2-1.6,3.1-4,3.1-6.5
			c0-2.5-1.1-4.9-3.1-6.5l-15.4-12.7c0-0.4,0-0.8,0-1.2V59.9c-0.3-4.1-3.8-7.3-7.9-7.3c-4.1,0-7.5,3.2-7.9,7.3v6l-20.4-16.6
			c-4.2-3.8-10.5-3.8-14.7,0L69.9,68c7.5,9.4,10.3,21.7,7.6,33.4C74.9,113.1,67,122.9,56.1,128.1L56.1,128.1z M79.9,135
			c0-0.6,0.3-1.2,0.7-1.7c0.5-0.6,1-1.1,1.6-1.5c0.6-0.4,1.1-0.8,1.6-1.3c0.5-0.5,0.7-0.8,0.7-1.1c-0.1-0.3-0.2-0.6-0.3-0.9
			c-0.2-0.3-0.3-0.7-0.4-1c-0.1-0.8-0.2-1.6-0.2-2.4c0-1.7,0.3-3.5,1-5.1c0.7-1.6,1.6-3.1,2.8-4.3c1.2-1.2,2.5-2.3,4-3.2
			c1.4-0.9,3-1.7,4.6-2.3c1.1-0.3,2.2-0.5,3.4-0.6c1.4-0.1,2.8-0.2,4.2-0.2c1.4,0,2.8-0.1,4.2-0.1c1.3-0.1,2.6-0.2,3.8-0.6
			c1-0.2,1.9-0.7,2.6-1.3l0.7-0.7l0.7-0.7c0.5-0.4,0.7-0.6,0.6-0.5c0,0.1,0.2,0,0.8-0.4c0.6-0.4,1-0.4,1-0.1c0.7,0,1.4,0.4,1.7,1.1
			c0.5,0.8,0.9,1.7,1.1,2.6c0.2,1,0.4,2,0.6,2.9c0.1,0.7,0.2,1.5,0.2,2.2h-0.1c0,1.5-0.2,3-0.5,4.5c-0.6,3.3-2.1,6.4-4.3,8.9
			c-2.3,2.6-5.2,4.7-8.4,6.3c-3.1,1.6-6.6,2.5-10.2,2.5c-2.3,0-4.6-0.4-6.8-1.1c-0.2-0.1-0.9-0.4-2.1-1c-0.7-0.4-1.4-0.7-2.2-0.9
			c-0.2,0-0.6,0.2-0.9,0.7c-0.4,0.5-0.7,1.1-1.1,1.7c-0.3,0.6-0.7,1.2-1.2,1.7c-0.3,0.4-0.9,0.7-1.4,0.7c-0.4,0-0.8-0.1-1.2-0.3
			c-0.3-0.1-0.5-0.3-0.7-0.6c-0.2-0.3-0.4-0.6-0.6-1l-0.1-0.3l-0.1-0.4c0-0.1,0-0.1,0-0.2C79.9,135.2,79.9,135.1,79.9,135L79.9,135z
			"/>
		<path class="st15" d="M78.6,92.5c0-8.9-3-17.6-8.6-24.6L42.2,90.3c-1.9,1.6-3.1,4-3.1,6.5c0,2.5,1.1,4.9,3.1,6.5l14,5.1v19.7
			C69.9,121.5,78.6,107.7,78.6,92.5z"/>
	</g>
</g>
</svg>
