<svg enable-background="new 0 0 80 80" viewBox="0 0 80 80" xmlns="http://www.w3.org/2000/svg"><path d="m40 80c-22.09 0-40-17.91-40-40 0-22.09 17.91-40 40-40 22.09 0 40 17.91 40 40 0 22.09-17.91 40-40 40z" fill="#fff"/><path d="m19.33 38.62c-.02-.22.03-.41.17-.55.13-.15.4-.24.79-.28 1.32-.14 2.47-.58 3.46-1.32s1.45-1.48 1.37-2.23c-.06-.54-.23-.91-.51-1.13-.45-.33-1.27-.43-2.48-.3-1.8.19-3.35.85-4.66 2-1.31 1.14-1.89 2.36-1.75 3.66.06.61.42 1.11 1.06 1.49s1.66.66 3.06.83 2.49.53 3.28 1.06c1.01.68 1.58 1.65 1.71 2.92.2 1.86-.73 3.45-2.76 4.77-1.79 1.16-3.94 1.88-6.45 2.14-2.54.27-4.42.24-5.64-.08-1.35-.36-2.09-1.13-2.21-2.3s.45-2.08 1.71-2.74c.94-.49 2.14-.82 3.59-.97.48-.05 1-.07 1.56-.06.55.01 1.27.08 2.15.21.36.04.56.24.6.61.05.48-.13.75-.54.79-.09.01-.22 0-.38-.02s-.42-.06-.79-.11c-.36-.05-.73-.08-1.11-.09s-.84.01-1.4.07c-1.24.13-2.2.38-2.88.74s-.98.81-.93 1.33c.06.54.57.94 1.53 1.19s2.51.26 4.65.04 4.01-.86 5.61-1.91c1.61-1.05 2.35-2.17 2.22-3.36-.11-1-.55-1.71-1.35-2.11-.53-.26-1.65-.52-3.35-.77-2.78-.42-4.28-1.6-4.48-3.53-.16-1.56.5-3.07 2-4.52 1.58-1.54 3.6-2.43 6.05-2.69 1.11-.12 2.04.01 2.77.38.85.44 1.33 1.16 1.44 2.16.14 1.32-.46 2.5-1.8 3.54-1.25.98-2.68 1.55-4.3 1.72-.35.04-.61 0-.76-.1-.14-.13-.23-.28-.25-.48z" fill="#ed1c24"/><path d="m62.15 35.47c.52-.88.77-1.48.95-1.88.03-.05.08-.08.15-.09.1-.01.19.01.29.07s.15.13.16.21l-.02.11c-.22.57-.44 1.2-.68 1.89s-.43 1.31-.59 1.84-.22.91-.2 1.15c.02.19.1.28.23.27.74-.08 1.53-.62 2.37-1.63s1.64-2.35 2.39-4.01c.04-.1.12-.16.25-.17.11-.01.22.02.33.08.11.07.17.15.18.24l-.01.14c-.26.62-.52 1.24-.77 1.86-.26.63-.43 1.14-.53 1.53-.1.4-.13.73-.1.99.04.41.21.59.49.56s.74-.37 1.36-1.01c.55-.58.92-1.03 1.11-1.36.08-.14.18-.22.3-.23.24-.03.37.09.4.36.01.1-.02.2-.08.32-.29.53-.73 1.06-1.3 1.6-.72.69-1.38 1.07-1.98 1.13-.66.07-1.03-.3-1.11-1.11-.03-.31 0-.67.09-1.08-.63.86-1.26 1.51-1.89 1.95-.54.38-1.07.6-1.6.66s-.82-.22-.88-.81c-.06-.52.07-1.19.37-1.99" fill="#c1272d"/><g fill="#333"><path d="m28.45 37.92c-.02-.17-.13-.24-.33-.22-.28.03-.59.24-.94.62-.42.48-.72 1.05-.88 1.72.63-.34 1.13-.69 1.5-1.03.47-.41.69-.79.65-1.09zm11.77 9.16c.01.07.02.12.04.15s.04.05.05.06l.08-.06c.22-.29.47-.83.75-1.64.23-.66.39-1.24.49-1.73-.4.63-.71 1.14-.91 1.53-.39.73-.56 1.3-.5 1.69zm8.93-11.51c-.86.09-1.52.53-2 1.33-.41.69-.57 1.44-.49 2.24.05.48.21.85.47 1.12s.6.38 1.03.34c.44-.05.83-.21 1.18-.5s.67-.66.96-1.13c-.27-.16-.51-.38-.71-.63-.3-.37-.46-.74-.5-1.13-.04-.35.02-.67.18-.96s.38-.51.68-.65c-.25-.07-.52-.07-.8-.03zm1.93 1.26c-.04-.35-.22-.51-.56-.47-.41.04-.59.26-.55.64.02.19.09.4.22.62s.32.41.57.56c.12-.23.21-.45.26-.67.06-.22.08-.43.06-.68zm2.03 1.81c-.15.18-.25.26-.5.41-.25.14-.51.23-.79.25-.19.02-.4.01-.62-.03-.32.59-.71 1.07-1.15 1.44-.53.44-1.13.7-1.78.77-.74.08-1.32-.09-1.75-.5-.26-.26-.46-.57-.59-.94-.44.5-.9.94-1.38 1.31-.11.08-.66.46-1.64 1.11-.44 1.65-.67 2.51-.69 2.59-.27.92-.52 1.61-.78 2.07-.31.58-.66.88-1.04.92-.35.04-.59-.04-.75-.22-.15-.18-.25-.44-.28-.78-.07-.67.28-1.61 1.04-2.82.53-.83 1.1-1.58 1.7-2.24l.3-.92c-.28.37-.54.64-.78.83s-.54.3-.87.34c-.49.05-.88-.1-1.18-.46-.21-.25-.37-.57-.46-.94-.25.29-.48.54-.7.74-.67.64-1.24.98-1.72 1.03-.51.05-.79-.11-.83-.49-.02-.14 0-.3.06-.48.22-.7.44-1.57.67-2.6s.33-1.69.3-1.97c-1.06.74-1.91 1.54-2.56 2.39s-1.24 1.96-1.78 3.34c-.45.05-.7-.1-.73-.45-.01-.07 0-.19.04-.35.03-.16.06-.28.07-.35.13-.45.24-.85.33-1.19.08-.35.15-.61.19-.8-.09.15-.24.37-.46.65-.14.18-.29.38-.46.59-.8.97-1.58 1.77-1.99 2.06-.62.43-1.27.68-1.97.75-.63.07-1.15-.1-1.55-.49s-.65-.99-.73-1.79c-.12-1.11.13-2.14.73-3.08.61-.94 1.3-1.46 2.09-1.54.31-.03.58.03.81.19.24.16.37.41.41.75.07.63-.27 1.27-1 1.93-.39.35-1.1.83-2.12 1.43l.03.27c.05.46.18.83.4 1.1.21.27.51.38.88.34.7-.07 1.36-.39 1.98-.96.21-.19.77-.74 1.39-1.5.75-.98 1.12-1.52 1.19-1.62.44-.63.75-1.17.93-1.64.08-.2.22-.31.44-.34.12-.01.21-.01.27.02.06.02.1.1.11.23.03.24.01.63-.06 1.16-.07.41-.11.7-.12.88.49-.7 1.09-1.34 1.8-1.94.7-.6 1.21-.91 1.52-.94.23-.02.41.04.56.18s.24.37.27.7c.04.37-.06 1.05-.28 2.03-.23.98-.48 1.87-.76 2.66.2-.02.59-.32 1.17-.88.52-.51.89-.93 1.1-1.24.05-1.14.5-2.09 1.35-2.86.94-.85 2.21-1.35 3.82-1.52.29-.03.44.1.47.38.03.31-.2.49-.7.54-1.12.12-2.05.48-2.81 1.09-.94.76-1.35 1.75-1.22 2.96.04.38.14.67.31.87s.37.29.6.26c.4-.04.88-.57 1.44-1.59.38-.7.85-1.72 1.39-3.05.07-.15.19-.24.37-.26.3-.03.46.11.49.42.01.07-.01.18-.04.33-.17.71-.37 1.44-.62 2.21s-.43 1.34-.54 1.71c.47-.3.93-.66 1.37-1.09.34-.34.68-.72 1.02-1.14-.02-.84.2-1.64.63-2.4.62-1.08 1.52-1.68 2.69-1.8.25-.03.45-.04.59-.03.15.01.33.04.55.09s.34.17.36.36c.02.14-.02.27-.11.37.3-.03.58.02.83.17.38.21.61.59.66 1.13.02.23 0 .52-.06.86-.07.35-.15.61-.25.79l.07-.01c.32-.03.58-.19.71-.34.42-.46.84-1.07 1.41-1.87.48-.68.91-1.39 1.36-2.05.39-1.46.67-2.49.85-3.08.29-.96.56-1.66.81-2.09.3-.51.62-.79.96-.83.49-.05.77.24.83.87.05.51-.15 1.25-.62 2.2-.4.83-.97 1.78-1.73 2.86.36-.38.67-.63.92-.77.26-.14.53-.22.83-.25.55-.06.96.03 1.24.27.22.18.36.46.39.83.08.8-.27 1.6-1.05 2.41-.7.71-1.45 1.2-2.25 1.47.11.47.3.84.56 1.11s.57.38.91.35c.42-.04.71.01 1.63-.73.88-.71 2.73-3.14 3.57-5.17l-1.28 3.47c-.65 1.09-1.03 1.53-1.76 2.21s-1.42 1.05-2.07 1.12c-.66.07-1.23-.14-1.71-.64-.43-.44-.68-.97-.75-1.61-.02-.18.02-.34.1-.49.09-.15.2-.26.35-.34.98-.48 1.69-.97 2.15-1.47s.67-.99.62-1.45c-.02-.16-.05-.26-.09-.32-.08-.1-.22-.14-.41-.12-.45.05-.91.28-1.37.71-.35.33-.7.75-1.04 1.25-.18.37-.4.99-.66 1.85-.39 1.32-.61 2.06-.66 2.19-.08.25-.16.41-.22.48-.07.07-.21.11-.42.13-.27.03-.42-.06-.45-.28-.02-.17.06-.57.23-1.22.14-.53.34-1.21.62-2.02-.11.14-.3.41-.59.8-.21.41-.4.67-.51.8zm4.81-9.53c0-.02-.01-.04-.03-.06s-.04-.03-.05-.04l-.12.1c-.08.17-.21.5-.38 1.02-.2.61-.37 1.19-.51 1.74.29-.53.56-1.1.8-1.73.2-.54.3-.88.29-1.03z"/><path d="m71.71 38.35c.01.08-.06.17-.2.27s-.3.16-.48.18c-.12.01-.22-.01-.28-.07-.07-.06-.1-.14-.12-.25-.02-.15.02-.3.1-.44s.2-.22.35-.24c.09-.01.18.01.27.06s.19.13.3.26l-.03.06c.04.04.07.1.09.17z"/><path d="m46.2 43.58c-.2 0-.38-.15-.4-.36-.02-.22.14-.42.36-.44l25.34-2.66c.22-.02.42.14.44.36s-.14.42-.36.44l-25.34 2.66s-.02 0-.04 0z"/></g><path d="m72.01 31.18c.09 0 .15.02.19.07s.06.1.06.18c0 .17-.08.25-.25.25-.13 0-.27 0-.44.02-.17.01-.35.02-.54.02l-.17 1.11c-.01.07-.03.12-.08.15s-.1.05-.16.05c-.17 0-.26-.08-.26-.24 0-.1.02-.25.06-.46.04-.2.07-.4.1-.58l-.86.03c-.17 0-.25-.08-.25-.25s.08-.25.25-.25c.13 0 .29-.01.5-.03s.36-.03.45-.03l.2-1.25c.01-.07.03-.12.08-.15s.1-.05.16-.05c.17 0 .26.08.26.24l-.19 1.21c.09 0 .24-.01.47-.02.23-.02.37-.02.42-.02z" fill="#ed1c24"/></svg>