<?xml version="1.0" encoding="utf-8"?>
<!-- Generator: Adobe Illustrator 24.0.0, SVG Export Plug-In . SVG Version: 6.00 Build 0)  -->
<svg version="1.1" xmlns="http://www.w3.org/2000/svg" xmlns:xlink="http://www.w3.org/1999/xlink" x="0px" y="0px"
	 viewBox="0 0 200 200" style="enable-background:new 0 0 200 200;" xml:space="preserve">
<style type="text/css">
	.st0{display:none;}
	.st1{display:inline;fill:#71A8FF;}
	.st2{display:inline;fill:#73A2FF;}
	.st3{display:inline;fill:#739BFF;}
	.st4{display:inline;fill:#7193FF;}
	.st5{display:inline;fill:#E9F6FF;}
	.st6{display:inline;fill:#FFFDF3;}
	.st7{display:inline;fill:#A9D0FF;}
	.st8{display:inline;}
	.st9{fill:#99E999;}
	.st10{fill:#01C700;}
	.st11{fill:#BEEEB9;}
	.st12{fill:#EAF9E8;}
	.st13{fill:#F9A238;}
	.st14{fill:#FFFFFF;}
	.st15{opacity:0.4;fill:#FFFFFF;enable-background:new    ;}
</style>
<g id="图层_1" class="st0">
	<path class="st1" d="M40-0.1h120c26.7,0,40,13.3,40,40v120c0,26.7-13.3,40-40,40H40c-26.7,0-40-13.3-40-40v-120
		C0,13.2,13.3-0.1,40-0.1z"/>
	<path class="st2" d="M160-0.1h-55.7C55.8,11.7,16.6,47.2,0,94.3v65.6c0,22.1,17.9,40,40,40h120c22.1,0,40-17.9,40-40v-120
		C200,17.8,182.1-0.1,160-0.1z"/>
	<path class="st3" d="M160-0.1h-0.8C79.6,17.1,29,95.6,46.3,175.2c1.8,8.4,4.4,16.7,7.6,24.7H160c22.1,0,40-17.9,40-40v-120
		C200,17.8,182.1-0.1,160-0.1z"/>
	<path class="st4" d="M97.1,140.7c0,20.4,4.2,40.5,12.3,59.2H160c22.1,0,40-17.9,40-40v-120c0-13.2-6.5-25.5-17.4-33
		C130.5,31,97.1,83.3,97.1,140.7z"/>
	<path class="st5" d="M47.5,52.4h105c6.7,0,10,3.3,10,10v75c0,6.7-3.3,10-10,10h-105c-6.7,0-10-3.3-10-10v-75
		C37.5,55.7,40.8,52.4,47.5,52.4z"/>
	<path class="st6" d="M47.5,52.4h105c5.5,0,10,4.5,10,10l0,0v70.8h-125V62.4C37.5,56.9,42,52.4,47.5,52.4L47.5,52.4z"/>
	<path class="st7" d="M100,109.9c-0.5,0.1-1,0.1-1.4,0L36,90.9c-2.7-0.6-4.3-3.3-3.7-6s3.3-4.3,6-3.7c0.2,0,0.4,0.1,0.6,0.2l61.1,18
		l61.1-18.6c2.6-1,5.5,0.3,6.4,2.9c1,2.6-0.3,5.5-2.9,6.4c-0.2,0.1-0.4,0.1-0.6,0.2l-62.5,19C101,109.6,100.5,109.8,100,109.9z"/>
</g>
<g id="图层_2" class="st0">
	<g class="st8">
		<path class="st9" d="M134.1,62.8H52.9c-5.6,0-10.1,4.6-10.1,10.2v60.9c0,5.6,4.6,10.2,10.2,10.2h81.2c5.6,0,10.2-4.6,10.2-10.2V73
			C144.3,67.4,139.7,62.8,134.1,62.8L134.1,62.8z M134.1,83.1l-40.6,25.4L52.9,83.1V72.9l40.6,25.4l40.6-25.4v10.2H134.1z"/>
		<path class="st10" d="M154.4,75.4H73.2c-5.6,0-10.1,4.6-10.1,10.2v60.9c0,5.6,4.6,10.2,10.2,10.2h81.2c5.6,0,10.2-4.6,10.2-10.2
			V85.6C164.5,80,160,75.4,154.4,75.4L154.4,75.4z M154.4,95.8l-40.6,25.4L73.2,95.8V85.6l40.6,25.4l40.6-25.4
			C154.4,85.6,154.4,95.8,154.4,95.8z"/>
		<path class="st11" d="M194,148.5l-4.6-4.6l4.6-4.6c1-1,1-2.6,0-3.6c-1-1-2.6-1-3.6,0l-4.6,4.6l-4.6-4.6c-1-1-2.6-1-3.6,0
			c-1,1-1,2.6,0,3.6l4.6,4.6l-4.6,4.6c-1,1-1,2.6,0,3.6c1,1,2.6,1,3.6,0l4.6-4.6l4.6,4.6c1,1,2.6,1,3.6,0
			C195,151.1,195,149.5,194,148.5z M184.6,57.8c-4.5,0-6.7-3.6-8.4-6.3s-2.5-3.8-4-3.8c-1.5,0-2.4,1.1-4,3.8
			c-1.6,2.7-3.8,6.3-8.4,6.3c-4.5,0-6.7-3.6-8.4-6.3c-1.7-2.7-2.5-3.8-4-3.8c-1.5,0-2.6-1.1-2.6-2.6c0-1.5,1.1-2.6,2.6-2.6
			c4.5,0,6.7,3.6,8.4,6.3c1.7,2.7,2.5,3.8,4,3.8c1.5,0,2.4-1.1,4-3.8c1.6-2.7,3.8-6.3,8.4-6.3c4.5,0,6.7,3.6,8.4,6.3
			c1.7,2.7,2.5,3.8,4,3.8c1.6,0,2.4-1.2,4-3.8c1.6-2.7,3.8-6.3,8.4-6.3c1.5,0,2.6,1.1,2.6,2.6c0,1.5-1.1,2.6-2.6,2.6
			c-1.6,0-2.4,1.1-4,3.8C191.3,54.1,189,57.8,184.6,57.8z"/>
		<path class="st12" d="M185.8,116.1c0,4,3.2,7.2,7.2,7.2s7.2-3.2,7.2-7.2l0,0c0-4-3.2-7.2-7.2-7.2S185.8,112.1,185.8,116.1z"/>
		<path class="st12" d="M16.4,89.1c0,4,3.2,7.2,7.2,7.2c4,0,7.2-3.2,7.2-7.2c0,0,0,0,0,0c0-4-3.2-7.2-7.2-7.2S16.4,85.1,16.4,89.1z"
			/>
		<path class="st11" d="M32,138.9l-13.8-13.8c-1-1-2.6-1-3.6,0L0.9,138.9c-1,1-1,2.6,0,3.6l13.8,13.8c1,1,2.6,1,3.6,0L32,142.5
			C33,141.6,33,139.9,32,138.9L32,138.9z M16.4,150.9L6.2,140.7l10.2-10.2l10.2,10.2L16.4,150.9z"/>
	</g>
</g>
<g id="图层_3">
	<g>
		<path class="st13" d="M0,100c0,55.2,44.8,100,100,100s100-44.8,100-100S155.2,0,100,0S0,44.8,0,100z"/>
		<path class="st14" d="M157.2,65.7c-3.3,2.8-7,5-11,6.6c0.2,0,0.5,0,0.7,0c1,0.1,2,0.7,2.6,1.5c0.6,0.8,0.9,1.9,0.8,2.9
			c-0.1,1-0.7,2-1.5,2.6l-25.1,19l25.1,25.1c1.5,1.5,1.4,4-0.1,5.5c-1.5,1.5-3.9,1.6-5.5,0.1l-25.9-25.9l-11.2,8.4
			c-3,2.1-7,2.1-10,0l-11.1-8.4l-22.4,22.4c19-4.2,38,6.7,43.9,25.3h26.6c15.2,0,27.6-12.3,27.6-27.6V79.1
			C160.7,74.4,159.5,69.8,157.2,65.7L157.2,65.7z"/>
		<path class="st14" d="M78.7,98.3l-25.1-19c-0.8-0.6-1.4-1.6-1.5-2.6c-0.3-2.1,1.2-4.1,3.3-4.4c1-0.1,2.1,0.1,2.9,0.8l42.7,32.2
			h0.2c0.1,0,0.2,0,0.3,0L144,73.1c-18.5,5.7-38.4-3.6-45.8-21.6H66.6C51.4,51.6,39,63.9,39,79.1v44.1c0,4.9,1.3,9.7,3.8,14
			c3-3.4,6.7-6.2,10.7-8.3c-1.5-1.5-1.4-4,0.1-5.5L78.7,98.3L78.7,98.3z"/>
		<path class="st15" d="M106.5,150.8c-5.8-18.5-24.9-29.5-43.9-25.3l-3.5,3.5c-1.5,1.5-4,1.5-5.6,0l-0.1-0.1
			c-4,2.1-7.7,4.9-10.7,8.3c5,8.4,14,13.6,23.8,13.6L106.5,150.8z"/>
		<path class="st14" d="M144.1,73.1c0.6-0.4,1.3-0.7,2.1-0.7c4-1.5,7.7-3.7,11-6.5c-4.9-8.8-14.1-14.2-24.1-14.2H98.2
			c5.8,14,19.5,23.2,34.7,23.2C136.7,74.7,140.5,74.2,144.1,73.1L144.1,73.1z"/>
	</g>
</g>
</svg>
